<mxfile host="app.diagrams.net" agent="Mozilla/5.0 (Windows NT 10.0; Win64; x64) AppleWebKit/537.36 (KHTML, like Gecko) Chrome/134.0.0.0 Safari/537.36" version="26.2.4">
  <diagram name="Página-1" id="Bw-3vuzHvK8cUdGuyqDx">
    <mxGraphModel dx="4736" dy="-1448" grid="1" gridSize="10" guides="1" tooltips="1" connect="1" arrows="1" fold="1" page="1" pageScale="1" pageWidth="583" pageHeight="827" background="none" math="0" shadow="1">
      <root>
        <mxCell id="0" />
        <mxCell id="1" parent="0" />
        <mxCell id="Lj_GNJjV4m9-QCivZ2Cv-1" style="edgeStyle=orthogonalEdgeStyle;rounded=0;orthogonalLoop=1;jettySize=auto;html=1;exitX=0.5;exitY=0.5;exitDx=0;exitDy=0;exitPerimeter=0;" parent="1" source="Lj_GNJjV4m9-QCivZ2Cv-2" target="Lj_GNJjV4m9-QCivZ2Cv-4" edge="1">
          <mxGeometry relative="1" as="geometry" />
        </mxCell>
        <mxCell id="Lj_GNJjV4m9-QCivZ2Cv-2" value="Empreendedor/Utilizador" style="shape=umlActor;verticalLabelPosition=bottom;verticalAlign=top;html=1;outlineConnect=0;labelBackgroundColor=none;" parent="1" vertex="1">
          <mxGeometry x="-900" y="3745" width="30" height="60" as="geometry" />
        </mxCell>
        <mxCell id="Lj_GNJjV4m9-QCivZ2Cv-3" style="edgeStyle=orthogonalEdgeStyle;rounded=0;orthogonalLoop=1;jettySize=auto;html=1;exitX=1;exitY=0.5;exitDx=0;exitDy=0;strokeColor=#97D077;" parent="1" source="Lj_GNJjV4m9-QCivZ2Cv-4" target="Lj_GNJjV4m9-QCivZ2Cv-5" edge="1">
          <mxGeometry relative="1" as="geometry" />
        </mxCell>
        <mxCell id="Lj_GNJjV4m9-QCivZ2Cv-4" value="Login" style="ellipse;whiteSpace=wrap;html=1;labelBackgroundColor=none;fillColor=#d5e8d4;strokeColor=#82b366;" parent="1" vertex="1">
          <mxGeometry x="-806" y="3740" width="90" height="70" as="geometry" />
        </mxCell>
        <mxCell id="Lj_GNJjV4m9-QCivZ2Cv-25" style="edgeStyle=orthogonalEdgeStyle;rounded=0;orthogonalLoop=1;jettySize=auto;html=1;exitX=1;exitY=0;exitDx=0;exitDy=0;entryX=0;entryY=0.5;entryDx=0;entryDy=0;" parent="1" source="Lj_GNJjV4m9-QCivZ2Cv-5" target="Lj_GNJjV4m9-QCivZ2Cv-20" edge="1">
          <mxGeometry relative="1" as="geometry">
            <Array as="points">
              <mxPoint x="-554" y="3750" />
              <mxPoint x="-554" y="3685" />
            </Array>
          </mxGeometry>
        </mxCell>
        <mxCell id="Lj_GNJjV4m9-QCivZ2Cv-26" style="edgeStyle=orthogonalEdgeStyle;rounded=0;orthogonalLoop=1;jettySize=auto;html=1;exitX=1;exitY=0;exitDx=0;exitDy=0;entryX=0;entryY=0.5;entryDx=0;entryDy=0;" parent="1" source="Lj_GNJjV4m9-QCivZ2Cv-5" target="Lj_GNJjV4m9-QCivZ2Cv-21" edge="1">
          <mxGeometry relative="1" as="geometry" />
        </mxCell>
        <mxCell id="Lj_GNJjV4m9-QCivZ2Cv-27" style="edgeStyle=orthogonalEdgeStyle;rounded=0;orthogonalLoop=1;jettySize=auto;html=1;exitX=1;exitY=0.5;exitDx=0;exitDy=0;" parent="1" source="Lj_GNJjV4m9-QCivZ2Cv-5" target="Lj_GNJjV4m9-QCivZ2Cv-22" edge="1">
          <mxGeometry relative="1" as="geometry" />
        </mxCell>
        <mxCell id="Lj_GNJjV4m9-QCivZ2Cv-29" style="edgeStyle=orthogonalEdgeStyle;rounded=0;orthogonalLoop=1;jettySize=auto;html=1;exitX=1;exitY=1;exitDx=0;exitDy=0;entryX=0;entryY=0.5;entryDx=0;entryDy=0;" parent="1" source="Lj_GNJjV4m9-QCivZ2Cv-5" target="Lj_GNJjV4m9-QCivZ2Cv-24" edge="1">
          <mxGeometry relative="1" as="geometry" />
        </mxCell>
        <mxCell id="Lj_GNJjV4m9-QCivZ2Cv-31" style="edgeStyle=orthogonalEdgeStyle;rounded=0;orthogonalLoop=1;jettySize=auto;html=1;exitX=0.5;exitY=0;exitDx=0;exitDy=0;entryX=0.5;entryY=1;entryDx=0;entryDy=0;strokeColor=#9673A6;" parent="1" source="Lj_GNJjV4m9-QCivZ2Cv-5" target="Lj_GNJjV4m9-QCivZ2Cv-18" edge="1">
          <mxGeometry relative="1" as="geometry" />
        </mxCell>
        <mxCell id="Lj_GNJjV4m9-QCivZ2Cv-5" value="Acesso a conta" style="ellipse;whiteSpace=wrap;html=1;labelBackgroundColor=none;fillColor=#e1d5e7;strokeColor=#9673A6;" parent="1" vertex="1">
          <mxGeometry x="-655" y="3740" width="90" height="70" as="geometry" />
        </mxCell>
        <mxCell id="Lj_GNJjV4m9-QCivZ2Cv-18" value="Consultar cotas" style="ellipse;whiteSpace=wrap;html=1;labelBackgroundColor=none;strokeColor=#9673A6;" parent="1" vertex="1">
          <mxGeometry x="-655" y="3630" width="90" height="70" as="geometry" />
        </mxCell>
        <mxCell id="Lj_GNJjV4m9-QCivZ2Cv-33" style="edgeStyle=orthogonalEdgeStyle;rounded=0;orthogonalLoop=1;jettySize=auto;html=1;exitX=0.5;exitY=1;exitDx=0;exitDy=0;dashed=1;strokeColor=#9673A6;" parent="1" source="Lj_GNJjV4m9-QCivZ2Cv-19" target="Lj_GNJjV4m9-QCivZ2Cv-18" edge="1">
          <mxGeometry relative="1" as="geometry" />
        </mxCell>
        <mxCell id="Lj_GNJjV4m9-QCivZ2Cv-34" value="&amp;lt;&amp;lt;extend&amp;gt;&amp;gt;" style="edgeLabel;html=1;align=center;verticalAlign=middle;resizable=0;points=[];" parent="Lj_GNJjV4m9-QCivZ2Cv-33" vertex="1" connectable="0">
          <mxGeometry x="-0.0643" relative="1" as="geometry">
            <mxPoint as="offset" />
          </mxGeometry>
        </mxCell>
        <mxCell id="Lj_GNJjV4m9-QCivZ2Cv-19" value="Solicitar mais cotas" style="ellipse;whiteSpace=wrap;html=1;labelBackgroundColor=none;strokeColor=#9673A6;" parent="1" vertex="1">
          <mxGeometry x="-655" y="3500" width="90" height="70" as="geometry" />
        </mxCell>
        <mxCell id="Lj_GNJjV4m9-QCivZ2Cv-20" value="Acesso aos Funcionarios" style="ellipse;whiteSpace=wrap;html=1;labelBackgroundColor=none;fillColor=#ffe6cc;strokeColor=#d79b00;" parent="1" vertex="1">
          <mxGeometry x="-534" y="3650" width="90" height="70" as="geometry" />
        </mxCell>
        <mxCell id="Lj_GNJjV4m9-QCivZ2Cv-21" value="Acesso aos Clientes" style="ellipse;whiteSpace=wrap;html=1;labelBackgroundColor=none;fillColor=#ffff88;strokeColor=#36393d;" parent="1" vertex="1">
          <mxGeometry x="-415" y="3688" width="90" height="70" as="geometry" />
        </mxCell>
        <mxCell id="Lj_GNJjV4m9-QCivZ2Cv-22" value="Acesso aos agendamentos" style="ellipse;whiteSpace=wrap;html=1;labelBackgroundColor=none;fillColor=#ffcccc;strokeColor=#36393d;" parent="1" vertex="1">
          <mxGeometry x="-325" y="3740" width="90" height="70" as="geometry" />
        </mxCell>
        <mxCell id="Lj_GNJjV4m9-QCivZ2Cv-23" value="Acesso ao perfil da empresa" style="ellipse;whiteSpace=wrap;html=1;labelBackgroundColor=none;fillColor=#dae8fc;strokeColor=#6c8ebf;" parent="1" vertex="1">
          <mxGeometry x="-534" y="3840" width="90" height="70" as="geometry" />
        </mxCell>
        <mxCell id="Lj_GNJjV4m9-QCivZ2Cv-24" value="Acesso as Informações" style="ellipse;whiteSpace=wrap;html=1;labelBackgroundColor=none;fillColor=#bac8d3;strokeColor=#23445d;" parent="1" vertex="1">
          <mxGeometry x="-414" y="3790" width="90" height="70" as="geometry" />
        </mxCell>
        <mxCell id="Lj_GNJjV4m9-QCivZ2Cv-30" style="edgeStyle=orthogonalEdgeStyle;rounded=0;orthogonalLoop=1;jettySize=auto;html=1;exitX=1;exitY=1;exitDx=0;exitDy=0;entryX=-0.005;entryY=0.548;entryDx=0;entryDy=0;entryPerimeter=0;" parent="1" source="Lj_GNJjV4m9-QCivZ2Cv-5" target="Lj_GNJjV4m9-QCivZ2Cv-23" edge="1">
          <mxGeometry relative="1" as="geometry">
            <Array as="points">
              <mxPoint x="-554" y="3800" />
              <mxPoint x="-554" y="3878" />
            </Array>
          </mxGeometry>
        </mxCell>
      </root>
    </mxGraphModel>
  </diagram>
</mxfile>
